<svg xmlns="http://www.w3.org/2000/svg" version="1.1" xmlns:xlink="http://www.w3.org/1999/xlink" xmlns:svgjs="http://svgjs.dev/svgjs" width="1000" height="260" viewBox="0 0 1000 260"><g transform="matrix(1,0,0,1,-0.6060606060606233,0.04804392024740878)"><svg viewBox="0 0 396 103" data-background-color="#ffffff" preserveAspectRatio="xMidYMid meet" height="260" width="1000" xmlns="http://www.w3.org/2000/svg" xmlns:xlink="http://www.w3.org/1999/xlink"><g id="tight-bounds" transform="matrix(1,0,0,1,0.2400000000000091,-0.0190327526692613)"><svg viewBox="0 0 395.52 103.03806390779062" height="103.03806390779062" width="395.52"><g><svg viewBox="0 0 551.4499603381346 143.65983074248916" height="103.03806390779062" width="395.52"><g transform="matrix(1,0,0,1,155.92996033813455,45.8422470024875)"><svg viewBox="0 0 395.52 51.97533673751417" height="51.97533673751417" width="395.52"><g id="textblocktransform"><svg viewBox="0 0 395.52 51.97533673751417" height="51.97533673751417" width="395.52" id="textblock"><g><svg viewBox="0 0 395.52 51.97533673751417" height="51.97533673751417" width="395.52"><g transform="matrix(1,0,0,1,0,0)"><svg width="395.52" viewBox="3 -36.25 280.39975708007813 36.849998474121094" height="51.97533673751417" data-palette-color="#0074d9"><g transform="matrix(1,0,0,1,0,0)"><g><svg width="16.546513671875" viewBox="1.7799999713897705 -36.36000061035156 74.20999908447266 36.36000061035156" height="8.107000000000001" data-palette-color="#0074d9" id="scriptelement" x="266.853239185281" y="-8.107000000000001"><path d="M12.91-30.02L1.78-30.02 1.78-36.36 31.64-36.36 31.64-30.02 20.51-30.02 20.51 0 12.91 0 12.91-30.02ZM36.57 0L36.57-36.36 46.06-36.36 56.07-11.93 56.5-11.93 66.51-36.36 75.99-36.36 75.99 0 68.53 0 68.53-23.67 68.23-23.67 58.82-0.18 53.74-0.18 44.33-23.76 44.03-23.76 44.03 0 36.57 0Z" opacity="1" transform="matrix(1,0,0,1,0,0)" fill="#0074d9" class="undefined-123" data-fill-palette-color="primary" id="p-123"></path></svg></g></g><path d="M38.05-27Q42.55-27 44.8-24.43 47.05-21.85 47.05-17.1L47.05-17.1 47.05 0 37.1 0 37.1-15.9Q37.1-17.6 36.27-18.63 35.45-19.65 33.95-19.65L33.95-19.65Q32.2-19.65 31.1-18.45 30-17.25 30-15.5L30-15.5 30 0 20.05 0 20.05-15.9Q20.05-17.6 19.23-18.63 18.4-19.65 16.9-19.65L16.9-19.65Q15.15-19.65 14.05-18.45 12.95-17.25 12.95-15.5L12.95-15.5 12.95 0 3 0 3-26.4 11.15-26.4 11.8-22.45Q13.3-24.55 15.78-25.78 18.25-27 21-27L21-27Q26.95-27 29-22.45L29-22.45Q30.55-24.55 32.98-25.78 35.4-27 38.05-27L38.05-27ZM66.65-27Q73.6-27 77.57-23.48 81.55-19.95 81.55-13.2L81.55-13.2Q81.55-6.45 77.57-2.93 73.6 0.6 66.65 0.6L66.65 0.6Q59.7 0.6 55.75-2.9 51.8-6.4 51.8-13.2L51.8-13.2Q51.8-20 55.75-23.5 59.7-27 66.65-27L66.65-27ZM66.65-20.25Q61.75-20.25 61.75-14.6L61.75-14.6 61.75-11.75Q61.75-6.15 66.65-6.15L66.65-6.15Q71.6-6.15 71.6-11.75L71.6-11.75 71.6-14.6Q71.6-20.25 66.65-20.25L66.65-20.25ZM100-27Q106.94-27 110.92-23.48 114.89-19.95 114.89-13.2L114.89-13.2Q114.89-6.45 110.92-2.93 106.94 0.6 100 0.6L100 0.6Q93.05 0.6 89.09-2.9 85.14-6.4 85.14-13.2L85.14-13.2Q85.14-20 89.09-23.5 93.05-27 100-27L100-27ZM100-20.25Q95.09-20.25 95.09-14.6L95.09-14.6 95.09-11.75Q95.09-6.15 100-6.15L100-6.15Q104.94-6.15 104.94-11.75L104.94-11.75 104.94-14.6Q104.94-20.25 100-20.25L100-20.25ZM146.99 0L138.89 0 138.04-3.75Q135.14 0.6 129.64 0.6L129.64 0.6Q124.29 0.6 121.39-2.9 118.49-6.4 118.49-13.25L118.49-13.25Q118.49-20.05 121.39-23.53 124.29-27 129.64-27L129.64-27Q134.19-27 137.04-23.95L137.04-23.95 137.04-36.25 146.99-36.25 146.99 0ZM132.74-19.65Q128.44-19.65 128.44-14.5L128.44-14.5 128.44-11.85Q128.44-6.75 132.74-6.75L132.74-6.75Q134.94-6.75 136.04-8.3 137.14-9.85 137.14-12.35L137.14-12.35 137.14-14Q137.14-16.5 136.04-18.07 134.94-19.65 132.74-19.65L132.74-19.65ZM165.04-26.4L170.64-26.4 170.64-19.65 165.04-19.65 165.04-9.6Q165.04-7.8 165.64-6.98 166.24-6.15 167.84-6.15L167.84-6.15 170.64-6.15 170.64-0.3Q169.44 0.1 167.54 0.35 165.64 0.6 164.24 0.6L164.24 0.6Q159.84 0.6 157.47-1 155.09-2.6 155.09-6.45L155.09-6.45 155.09-19.65 151.39-19.65 151.39-26.4 155.49-26.4 157.64-34.4 165.04-34.4 165.04-26.4ZM191.29-27.05Q192.44-27.05 193.34-26.78 194.24-26.5 194.24-26.45L194.24-26.45 194.24-18.1 191.04-18.1Q187.94-18.1 186.56-16.5 185.19-14.9 185.19-11.75L185.19-11.75 185.19 0 175.24 0 175.24-26.4 183.39-26.4 184.04-22.4Q184.94-24.7 186.89-25.88 188.84-27.05 191.29-27.05L191.29-27.05ZM211.34-27Q217.38-27 221.19-24.98 224.99-22.95 224.99-18.4L224.99-18.4 224.99-8.1Q224.99-7.25 225.38-6.7 225.78-6.15 226.59-6.15L226.59-6.15 228.38-6.15 228.38-0.4Q228.24-0.3 227.61-0.08 226.99 0.15 225.84 0.38 224.69 0.6 223.19 0.6L223.19 0.6Q220.28 0.6 218.41-0.28 216.53-1.15 215.84-2.7L215.84-2.7Q213.94-1.2 211.59-0.3 209.23 0.6 206.09 0.6L206.09 0.6Q196.78 0.6 196.78-6.8L196.78-6.8Q196.78-10.65 198.86-12.68 200.94-14.7 204.84-15.45 208.73-16.2 215.03-16.2L215.03-16.2 215.03-17.5Q215.03-19.05 213.96-19.85 212.88-20.65 211.19-20.65L211.19-20.65Q209.63-20.65 208.51-20.1 207.38-19.55 207.38-18.35L207.38-18.35 207.38-18.15 197.59-18.15Q197.53-18.4 197.53-18.85L197.53-18.85Q197.53-22.6 201.11-24.8 204.69-27 211.34-27L211.34-27ZM215.03-11.5Q210.78-11.5 208.76-10.58 206.73-9.65 206.73-8.1L206.73-8.1Q206.73-5.6 210.13-5.6L210.13-5.6Q212.09-5.6 213.56-6.65 215.03-7.7 215.03-9.25L215.03-9.25 215.03-11.5ZM241.93-29.5L231.98-29.5 231.98-36.25 241.93-36.25 241.93-29.5ZM241.93 0L231.98 0 231.98-26.4 241.93-26.4 241.93 0ZM258.58 0L248.63 0 248.63-36.25 258.58-36.25 258.58 0Z" opacity="1" transform="matrix(1,0,0,1,0,0)" fill="#0074d9" class="wordmark-text-0" data-fill-palette-color="primary" id="text-0"></path></svg></g></svg></g></svg></g></svg></g><g><svg viewBox="0 0 143.65983074248916 143.65983074248916" height="143.65983074248916" width="143.65983074248916"><g><svg xmlns="http://www.w3.org/2000/svg" version="1.1" viewBox="3.582998275756836 3.5820000171661377 56.834999084472656 56.834999084472656" x="0" y="0" height="143.65983074248916" width="143.65983074248916" class="icon-icon-0" data-fill-palette-color="accent" id="icon-0"><path d="M41.779 3.582c10.306 0 18.639 8.334 18.639 18.639s-8.334 18.643-18.639 18.643h-0.914v0.914c0 10.305-8.337 18.639-18.643 18.639s-18.639-8.334-18.639-18.639c0-10.305 8.334-18.643 18.639-18.643h0.914v-0.914c0-10.305 8.337-18.639 18.643-18.639zM46.668 15.804c-0.856 0-1.532 0.675-1.532 1.529s0.678 1.532 1.532 1.532c0.854 0 1.529-0.677 1.529-1.532s-0.673-1.529-1.529-1.529zM36.889 15.804c-0.856 0-1.529 0.673-1.529 1.529s0.675 1.532 1.529 1.532c0.854 0 1.532-0.678 1.532-1.532s-0.676-1.529-1.532-1.529zM50.457 23.136h-3.061c-0.457 2.745-2.747 4.889-5.618 4.889s-5.161-2.144-5.618-4.889h-3.057c0.477 4.451 4.098 7.95 8.679 7.95s8.198-3.498 8.675-7.95zM22.221 26.196c-8.595 0-15.582 6.987-15.582 15.582s6.988 15.579 15.582 15.579c8.59-0.01 15.572-6.99 15.582-15.579 0-0.232-0.009-0.451-0.018-0.661l-0.032-0.675-0.65-0.171c-1.537-0.405-2.868-0.939-4.121-1.614l-0.482-0.261-6.225 4.15-1.7-2.546 5.214-3.475-0.832-0.789c-2.468-2.341-4.293-5.33-5.196-8.7l-0.186-0.789-0.693-0.032c-0.209-0.009-0.427-0.018-0.661-0.018zM14.046 36.107l5.811 3.875-1.7 2.546-5.811-3.879zM28.639 47.582v3.061h-12.836v-3.061z" fill="#0074d9" data-fill-palette-color="accent"></path></svg></g></svg></g></svg></g><defs></defs></svg><rect width="395.52" height="103.03806390779062" fill="none" stroke="none" visibility="hidden"></rect></g></svg></g></svg>